<svg xmlns="http://www.w3.org/2000/svg" width="52" height="52" viewBox="0 0 52 52" fill="none"><path d="M42.6732 6.76C41.5146 6.52889 40.4139 6.70222 39.3711 7.28C38.3284 7.85778 37.6332 8.75333 37.2856 9.96667C36.938 11.18 37.0829 12.3067 37.7201 13.3467C38.3573 14.3867 39.2553 15.08 40.4139 15.4267C40.7615 15.5422 41.109 15.6 41.4566 15.6C42.2677 15.6 43.0207 15.3689 43.7159 14.9067C44.7587 14.3289 45.4538 13.4333 45.8014 12.22C46.149 11.0067 46.0042 9.88 45.3669 8.84C44.7297 7.8 43.8318 7.10667 42.6732 6.76ZM43.0207 13.52C42.3256 13.9822 41.5725 14.0978 40.7615 13.8667C39.9504 13.6356 39.3711 13.1733 39.0235 12.48C38.6759 11.7867 38.5891 11.0644 38.7628 10.3133C38.9366 9.56222 39.3711 9.01333 40.0663 8.66667C40.5297 8.32 40.9932 8.14667 41.4566 8.14667L42.3256 8.32C43.0207 8.55111 43.5711 9.01333 43.9766 9.70667C44.3821 10.4 44.498 11.1222 44.3242 11.8733C44.1504 12.6244 43.7159 13.1733 43.0207 13.52ZM51.5366 13.3467L49.9724 12.1333C50.0883 11.3244 50.0883 10.5156 49.9724 9.70667L51.3628 8.49333C51.5945 8.26222 51.7683 7.94445 51.8841 7.54C52 7.13556 51.9421 6.81778 51.7103 6.58667L50.4938 4.33333C50.2621 3.98667 49.9724 3.75555 49.6248 3.64C49.2773 3.52444 48.9297 3.52444 48.5821 3.64L46.6704 4.33333C46.0911 3.75555 45.3959 3.35111 44.5849 3.12L44.2373 1.38667C44.1214 0.924446 43.9187 0.577778 43.629 0.346668C43.3394 0.115555 43.0207 0 42.6732 0H40.2401C39.7766 0 39.4001 0.115555 39.1104 0.346668C38.8208 0.577778 38.618 0.924446 38.5022 1.38667L38.1546 3.12C37.4594 3.46667 36.7642 3.92889 36.0691 4.50667L34.5049 3.81334C34.0415 3.69778 33.636 3.72667 33.2884 3.9C32.9408 4.07333 32.6512 4.33333 32.4194 4.68L31.2029 6.76C31.087 7.10667 31.0581 7.45333 31.116 7.8C31.1739 8.14667 31.3188 8.49333 31.5505 8.84L32.9408 10.0533C32.825 10.8622 32.8829 11.6711 33.1146 12.48L31.7243 13.6933C31.3767 13.9244 31.1739 14.2422 31.116 14.6467C31.0581 15.0511 31.145 15.4267 31.3767 15.7733L32.5932 17.8533C32.825 18.2 33.1146 18.4311 33.4622 18.5467C33.8098 18.6622 34.1574 18.6622 34.5049 18.5467L36.2429 17.8533C36.938 18.4311 37.6911 18.8356 38.5022 19.0667L38.8497 20.8C38.8497 21.2622 39.0235 21.6089 39.3711 21.84C39.7187 22.0711 40.0663 22.1867 40.4139 22.1867H42.847C43.1945 22.1867 43.5421 22.0711 43.8897 21.84C44.2373 21.6089 44.4111 21.2622 44.4111 20.8L44.7587 19.0667C45.5697 18.72 46.3228 18.2578 47.018 17.68L48.5821 18.3733C48.9297 18.4889 49.3062 18.46 49.7117 18.2867C50.1172 18.1133 50.3779 17.9111 50.4938 17.68L51.8841 15.4267C52 15.08 52.029 14.7333 51.971 14.3867C51.9131 14.04 51.7683 13.6933 51.5366 13.3467ZM50.4938 14.7333L49.2773 16.8133H49.1035L47.018 16.12C46.7862 16.0044 46.5545 16.0622 46.3228 16.2933C45.6276 16.9867 44.8166 17.4489 43.8897 17.68C43.658 17.7956 43.4842 18.0267 43.3683 18.3733L43.0207 20.6267H42.847H40.4139H40.2401L39.8925 18.3733C39.8925 18.1422 39.7187 17.9689 39.3711 17.8533C38.4442 17.5067 37.6332 17.0444 36.938 16.4667C36.7063 16.3511 36.4746 16.2933 36.2429 16.2933L33.9836 17.16L32.767 14.9067C32.6512 14.9067 32.6512 14.8489 32.767 14.7333L34.3312 13.3467C34.5629 13.1156 34.6787 12.8844 34.6787 12.6533C34.447 11.7289 34.3891 10.8044 34.5049 9.88C34.6208 9.53333 34.5629 9.30222 34.3312 9.18667L32.5932 7.62667C32.5932 7.62667 32.5932 7.56889 32.5932 7.45333L33.8098 5.37333H33.9836L36.0691 6.06667C36.3008 6.18222 36.5325 6.12444 36.7642 5.89333C37.4594 5.2 38.2704 4.73778 39.1973 4.50667C39.429 4.39111 39.6028 4.16 39.7187 3.81334L40.0663 1.56H40.2401H42.6732L43.1945 3.81334C43.1945 4.04445 43.3683 4.21778 43.7159 4.33333C44.6428 4.68 45.4538 5.14222 46.149 5.72C46.3807 5.95111 46.6124 6.00889 46.8442 5.89333L49.1035 5.02667V5.2L50.32 7.28C50.4359 7.28 50.4359 7.33778 50.32 7.45333L48.7559 8.84C48.5242 9.07111 48.4083 9.30222 48.4083 9.53333C48.64 10.4578 48.64 11.3822 48.4083 12.3067C48.4083 12.6533 48.5242 12.8844 48.7559 13L50.4938 14.56C50.4938 14.56 50.4938 14.6178 50.4938 14.7333ZM11.043 27.3867C11.043 26.6933 10.7823 26.1156 10.261 25.6533C9.73959 25.1911 9.13132 24.96 8.43615 24.96H8.08857V21.1467C8.08857 20.6844 7.94374 20.4244 7.65409 20.3667C7.36443 20.3089 7.07478 20.3667 6.78513 20.54C6.49547 20.7133 6.40858 20.9733 6.52444 21.32V24.96H4.26514V11.7867C4.26514 11.6711 4.26514 11.5556 4.26514 11.44L2.35343 8.32V4.33333H8.43615V8.32L6.69823 11.44C6.58237 11.5556 6.52444 11.6711 6.52444 11.7867V16.8133C6.40858 17.16 6.49547 17.42 6.78513 17.5933C7.07478 17.7667 7.36443 17.7956 7.65409 17.68C7.94374 17.5644 8.08857 17.3333 8.08857 16.9867V11.96L9.82649 8.84C9.94235 8.72445 10.0003 8.60889 10.0003 8.49333V0.693333C10.0003 0.577778 9.91338 0.433334 9.73959 0.260002C9.5658 0.0866661 9.36304 0 9.13132 0H1.65826C1.42654 0 1.25275 0.0866661 1.13689 0.260002C1.02103 0.433334 0.963097 0.635555 0.963097 0.866669V8.49333C0.963097 8.60889 0.963097 8.78222 0.963097 9.01333L2.87481 11.96V24.96H2.35343C1.42654 24.96 0.76034 25.3356 0.354825 26.0867C-0.0506893 26.8378 -0.10862 27.6467 0.181033 28.5133C0.470686 29.38 1.07896 29.8711 2.00585 29.9867V45.24C2.00585 46.28 2.35343 47.1178 3.0486 47.7533C3.74377 48.3889 4.5548 48.7067 5.48169 48.7067C6.40858 48.7067 7.21961 48.3889 7.91477 47.7533C8.60994 47.1178 8.95753 46.28 8.95753 45.24V29.9867C9.53683 29.8711 10.0292 29.5822 10.4348 29.12C10.8403 28.6578 11.043 28.08 11.043 27.3867ZM2.35343 2.77333V1.56H8.43615V2.77333H2.35343ZM5.48169 47.1467C4.90238 47.1467 4.40997 46.9444 4.00446 46.54C3.59894 46.1356 3.39618 45.7022 3.39618 45.24L3.56998 29.9867H7.3934V45.24C7.3934 45.7022 7.19064 46.1356 6.78513 46.54C6.37961 46.9444 5.94513 47.1467 5.48169 47.1467ZM8.43615 28.4267H2.35343C2.00585 28.4267 1.74516 28.2533 1.57137 27.9067C1.39758 27.56 1.39758 27.2133 1.57137 26.8667C1.74516 26.52 2.00585 26.3467 2.35343 26.3467H8.43615C8.8996 26.3467 9.18925 26.52 9.30511 26.8667C9.42097 27.2133 9.42097 27.56 9.30511 27.9067C9.18925 28.2533 8.8996 28.4267 8.43615 28.4267ZM48.7559 43.16V39.8667C48.7559 37.0933 48.1766 34.4644 47.018 31.98C45.8593 29.4956 44.1794 27.3867 41.978 25.6533C41.7463 25.4222 41.4566 25.3067 41.109 25.3067C40.7615 25.3067 40.4718 25.4222 40.2401 25.6533C38.618 24.4978 36.8222 23.6311 34.8525 23.0533C34.9684 22.4756 34.8525 22.1289 34.5049 22.0133C33.2305 21.32 31.927 20.9733 30.5946 20.9733C29.2622 20.9733 27.9588 21.32 26.6843 22.0133C26.3367 22.1289 26.2209 22.4756 26.3367 23.0533C25.4098 23.2844 24.5409 23.6311 23.7298 24.0933V15.08C26.8581 14.2711 28.4802 12.3067 28.596 9.18667C28.596 7.56889 28.1326 5.89333 27.2057 4.16C26.2788 2.42667 25.1781 1.09778 23.9036 0.173332C23.2085 -0.0577774 22.803 0.173332 22.6871 0.866669V7.10667C22.5712 7.45333 22.3395 7.62667 21.9919 7.62667H18.8637C18.7478 7.62667 18.6319 7.56889 18.5161 7.45333C18.4002 7.33778 18.3423 7.22222 18.3423 7.10667V0.693333C18.2264 0.115555 17.8209 -0.0577774 17.1257 0.173332C15.7354 0.982224 14.6058 2.25333 13.7368 3.98667C12.8678 5.72 12.4334 7.45333 12.4334 9.18667C12.4334 12.3067 13.9975 14.2711 17.1257 15.08V27.7333C15.5037 29.3511 14.2871 31.2 13.4761 33.28C12.6651 35.36 12.2596 37.5556 12.2596 39.8667V43.16C11.3327 43.5067 10.7534 44.1133 10.5217 44.98C10.2899 45.8467 10.4058 46.6844 10.8692 47.4933C11.3327 48.3022 12.0858 48.7067 13.1285 48.7067C15.214 48.7067 17.2995 49.2556 19.385 50.3533C21.4705 51.4511 23.614 52 25.8153 52H35.2001C37.5173 52 39.7187 51.4511 41.8042 50.3533C43.8897 49.2556 45.9752 48.7067 48.0607 48.7067C49.1035 48.7067 49.8566 48.3022 50.32 47.4933C50.7835 46.6844 50.8993 45.8467 50.6676 44.98C50.4359 44.1133 49.7986 43.5067 48.7559 43.16ZM39.7187 27.04V35.88C39.7187 36.1111 39.7766 36.3133 39.8925 36.4867C40.0084 36.66 40.1821 36.7467 40.4139 36.7467C40.6456 36.7467 40.8194 36.66 40.9352 36.4867C41.0511 36.3133 41.109 36.1111 41.109 35.88V27.04C43.0787 28.6578 44.6138 30.5644 45.7145 32.76C46.8152 34.9556 47.3655 37.3244 47.3655 39.8667V42.9867H41.2828L41.109 40.04C41.109 39.8089 41.0511 39.6067 40.9352 39.4333C40.8194 39.26 40.6456 39.1733 40.4139 39.1733C40.1821 39.1733 40.0084 39.26 39.8925 39.4333C39.7766 39.6067 39.7187 39.8089 39.7187 40.04V42.9867H34.8525V24.7867C36.5904 25.2489 38.2125 26 39.7187 27.04ZM33.2884 23.0533V42.9867H27.7271V23.0533C29.5808 22.2444 31.4346 22.2444 33.2884 23.0533ZM26.3367 42.9867H21.4705V27.04C22.9767 26 24.5988 25.2489 26.3367 24.7867V42.9867ZM13.9975 9.18667C13.9975 8.03111 14.2582 6.81778 14.7796 5.54667C15.3009 4.27555 15.9671 3.23556 16.7782 2.42667V7.10667C16.7782 7.68444 16.9809 8.17556 17.3864 8.58C17.792 8.98444 18.2844 9.18667 18.8637 9.18667H21.9919C22.5712 9.18667 23.0636 8.98444 23.4692 8.58C23.8747 8.17556 24.0774 7.68444 24.0774 7.10667V2.42667C25.0043 3.35111 25.7285 4.42 26.2498 5.63334C26.7712 6.84667 27.0319 8.03111 27.0319 9.18667C27.0319 11.7289 25.6416 13.2311 22.8609 13.6933C22.3974 13.8089 22.1657 14.04 22.1657 14.3867V24.7867L20.7754 25.6533C20.5437 25.4222 20.283 25.3356 19.9933 25.3933C19.7037 25.4511 19.443 25.5378 19.2113 25.6533L18.5161 26.1733L18.6899 14.3867C18.6899 14.04 18.4582 13.8089 17.9947 13.6933C15.3299 13.1156 13.9975 11.6133 13.9975 9.18667ZM19.9064 27.04V42.9867H13.8237V39.8667C13.8237 37.3244 14.374 34.9556 15.4747 32.76C16.5754 30.5644 18.0526 28.6578 19.9064 27.04ZM48.9297 46.8C48.6979 47.0311 48.4083 47.1467 48.0607 47.1467C45.7435 47.1467 43.3683 47.7822 40.9352 49.0533C39.1973 49.9778 37.2856 50.44 35.2001 50.44H25.8153C23.8457 50.44 21.934 49.9778 20.0802 49.0533C17.5313 47.6667 15.214 47.0311 13.1285 47.1467C12.5492 47.1467 12.1727 46.9444 11.9989 46.54C11.8251 46.1356 11.8541 45.7022 12.0858 45.24C12.3175 44.7778 12.6651 44.5467 13.1285 44.5467H47.8869C48.4662 44.5467 48.9007 44.8067 49.1904 45.3267C49.48 45.8467 49.3931 46.3378 48.9297 46.8Z" fill="#FF5E14"></path></svg>