<svg xmlns="http://www.w3.org/2000/svg" width="52" height="52" viewBox="0 0 52 52" fill="none"><path fill-rule="evenodd" clip-rule="evenodd" d="M51.2544 24.6704L48.9327 23.7805V22.3656C48.9653 13.681 42.8176 5.93241 33.6202 3.0665V1.07231C33.6202 0.480378 33.0812 0 32.4175 0H19.5466C18.8829 0 18.3439 0.480378 18.3439 1.07231V3.07703C9.14649 5.94295 2.99882 13.6915 3.03144 22.3761V23.802L0.733807 24.6704C0.288631 24.8379 0 25.2271 0 25.657V31.286C0 31.8775 0.53894 32.3579 1.20304 32.3579H2.76686V34.5025C2.76686 35.0941 3.30539 35.5745 3.96949 35.5745H8.28794C8.69806 36.9168 9.30059 38.2078 10.0801 39.4128L7.02498 42.1363C6.55819 42.5541 6.55819 43.2297 7.02498 43.6479L12.1372 48.2046C12.606 48.6206 13.3638 48.6206 13.8331 48.2046L16.8882 45.4815C18.2367 46.1762 19.6803 46.7122 21.1826 47.0789V50.9281C21.1826 51.5196 21.7215 52 22.3856 52H29.6026C30.2667 52 30.8056 51.5196 30.8056 50.9281V47.0789C32.3116 46.7133 33.7596 46.1773 35.1118 45.4815L38.1673 48.2046C38.6362 48.6206 39.394 48.6206 39.8632 48.2046L44.9754 43.6479C45.4422 43.2297 45.4422 42.5541 44.9754 42.1363L41.9199 39.4128C42.6994 38.2078 43.3024 36.9168 43.7125 35.5745H48.0305C48.6946 35.5745 49.2335 35.0941 49.2335 34.5025V32.3579H50.7974C51.4615 32.3579 52 31.8775 52 31.286V25.657C51.9976 25.2238 51.7032 24.8347 51.2544 24.6704ZM20.7254 2.15446H31.2144V20.0701H20.7495L20.7254 2.15446ZM42.8343 33.43H46.8397L46.8278 32.3576H35.8216C35.2728 36.3933 31.7041 39.5735 27.1765 40.0633C21.7419 40.652 16.8017 37.2018 16.1425 32.3576H5.14847V33.43H9.15383C9.73109 33.418 10.235 33.7741 10.3569 34.2766C10.7764 35.9503 11.5342 37.5415 12.5942 38.9728C12.9032 39.3965 12.8371 39.955 12.4376 40.313L9.56272 42.8755L12.9668 45.91L15.8417 43.3475C16.2436 42.9914 16.8702 42.9325 17.3456 43.2079C18.9607 44.1451 20.7545 44.8097 22.6379 45.1701C23.2021 45.2784 23.6017 45.7276 23.5882 46.2421V49.8874H28.3995V46.2744C28.3865 45.7599 28.7856 45.3104 29.3498 45.2021C31.2336 44.8409 33.027 44.176 34.6426 43.2403C35.1179 42.9645 35.7445 43.0237 36.1461 43.3794L39.021 45.9419L42.4613 42.8969L39.5864 40.3344C39.1873 39.9765 39.1208 39.418 39.4303 38.9943C40.4804 37.5542 41.226 35.9558 41.6313 34.2766C41.7528 33.7741 42.257 33.418 42.8343 33.43ZM18.5963 32.3576H33.4037C32.742 36.0052 28.8879 38.4842 24.7961 37.8944C21.6037 37.4344 19.1006 35.2033 18.5845 32.3576H18.5963ZM2.39379 30.2133H49.6061V26.3856L47.2848 25.4957C46.8397 25.3285 46.551 24.9393 46.551 24.5095V22.3648C46.5849 14.8674 41.4641 8.11478 33.6442 5.34951V21.1428C33.6442 21.7344 33.1052 22.2148 32.4411 22.2148H19.5465C18.8824 22.2148 18.3439 21.7344 18.3439 21.1428V5.34951C10.537 8.11587 5.42238 14.8554 5.44888 22.3434V24.4877C5.44888 24.9179 5.16025 25.3071 4.71507 25.4742L2.39379 26.3641V30.2133Z" fill="#FF5E14"></path></svg>