<svg xmlns="http://www.w3.org/2000/svg" width="58" height="52" viewBox="0 0 58 52" fill="none"><path d="M58 49.252V48.4065C58 48.1247 57.9033 47.9133 57.71 47.7724C57.5167 47.6314 57.3233 47.561 57.13 47.561C56.9367 47.561 56.7433 47.6314 56.55 47.7724C56.3567 47.9133 56.26 48.1247 56.26 48.4065V49.4634C56.3889 49.6043 56.3889 49.7453 56.26 49.8862C56.1311 50.0271 55.9378 50.0976 55.68 50.0976H50.8467V33.3984L52.2 34.0325C53.2311 34.4553 54.1011 35.1599 54.81 36.1463C55.5189 37.1328 55.8733 38.1897 55.8733 39.3171L56.0667 42.9106C56.0667 43.0515 56.1633 43.2276 56.3567 43.439C56.55 43.6504 56.7433 43.7561 56.9367 43.7561C57.13 43.7561 57.3233 43.6504 57.5167 43.439C57.71 43.2276 57.8067 42.981 57.8067 42.6992L57.6133 39.3171C57.4844 37.7669 56.9689 36.3225 56.0667 34.9837C55.1644 33.645 54.0689 32.7642 52.78 32.3415L43.3067 28.748C42.7911 28.607 42.4044 28.6775 42.1467 28.9593L41.9533 29.1707L40.02 28.3252V26.4228C40.5356 26.1409 41.0511 25.7182 41.5667 25.1545V24.9431C42.8556 23.5339 43.6289 21.9133 43.8867 20.0813L44.08 19.2358H44.4667C44.9822 19.2358 45.4333 19.0596 45.82 18.7073C46.2067 18.355 46.4 17.8266 46.4 17.1219V14.5854C46.5289 14.3035 46.5933 14.0217 46.5933 13.7398V12.6829C46.5933 12.2602 46.4644 11.9079 46.2067 11.626C45.9489 11.3442 45.6911 11.1328 45.4333 10.9919V10.5691C45.3044 8.17344 44.4989 6.13008 43.0167 4.43902C41.5344 2.74797 39.8267 1.76152 37.8933 1.47967L36.7333 0.21138L34.8 0L33.8333 0.422764L32.8667 1.47967C30.9333 1.76152 29.2578 2.67751 27.84 4.22764C27.0667 5.07317 26.4867 6.05962 26.1 7.18699L21.2667 2.3252C20.7511 1.76152 20.1711 1.47967 19.5267 1.47967C18.8822 1.47967 18.3022 1.76152 17.7867 2.3252L12.5667 7.60976V6.97561C12.5667 6.55285 12.4378 6.23577 12.18 6.02439C11.9222 5.81301 11.6644 5.70732 11.4067 5.70732H7.54C7.15333 5.70732 6.83111 5.81301 6.57333 6.02439C6.31556 6.23577 6.18667 6.55285 6.18667 6.97561V14.1626L0.773333 19.6585C0.257778 20.2222 0 20.8916 0 21.6667C0 22.4417 0.225556 23.1111 0.676667 23.6748C1.12778 24.2385 1.74 24.5203 2.51333 24.5203C3.15778 24.5203 3.73778 24.2385 4.25333 23.6748L6.18667 21.7724V28.1138C6.18667 28.3957 6.25111 28.6423 6.38 28.8537C6.50889 29.065 6.70222 29.1707 6.96 29.1707C7.21778 29.1707 7.41111 29.065 7.54 28.8537C7.66889 28.6423 7.73333 28.3957 7.73333 28.1138V20.0813L19.5267 8.03252L24.1667 12.8943V13.9512C24.2956 14.0921 24.36 14.3035 24.36 14.5854V17.1219C24.36 17.8266 24.5533 18.355 24.94 18.7073C25.3267 19.0596 25.7778 19.2358 26.2933 19.2358H26.68L26.8733 20.9268C27.0022 21.4905 27.1956 22.0542 27.4533 22.6179L27.84 23.252L30.74 26.6341V28.3252L28.8067 29.1707L28.6133 28.9593C28.4844 28.8184 28.2267 28.6775 27.84 28.5366L24.1667 29.8049V23.4634C24.1667 23.0406 24.0378 22.6883 23.78 22.4065C23.5222 22.1247 23.2 21.9837 22.8133 21.9837H16.24C15.8533 21.9837 15.5311 22.1247 15.2733 22.4065C15.0156 22.6883 14.8867 23.0406 14.8867 23.4634V34.4553L13.1467 39.3171H7.73333V33.8211C7.73333 33.5393 7.66889 33.3279 7.54 33.187C7.41111 33.0461 7.21778 32.9756 6.96 32.9756C6.70222 32.9756 6.50889 33.0461 6.38 33.187C6.25111 33.3279 6.18667 33.5393 6.18667 33.8211V39.3171C6.18667 39.7398 6.34778 40.1274 6.67 40.4797C6.99222 40.832 7.41111 41.0081 7.92667 41.0081H13.1467L12.76 49.252C12.76 49.9566 12.9856 50.5908 13.4367 51.1545C13.8878 51.7182 14.4356 52 15.08 52H55.68C56.3244 52 56.8722 51.7182 57.3233 51.1545C57.7744 50.5908 58 49.9566 58 49.252ZM44.66 17.1219C44.66 17.4038 44.5956 17.5447 44.4667 17.5447H44.08V15.4309H44.66V17.1219ZM34.22 2.53658L34.4133 2.11382L34.8 1.90244H35.96L36.1533 2.11382L36.54 2.53658V5.70732C36.54 5.98916 36.4756 6.20054 36.3467 6.34146C36.2178 6.48238 36.0244 6.55285 35.7667 6.55285H34.9933C34.7356 6.55285 34.5422 6.48238 34.4133 6.34146C34.2844 6.20054 34.22 5.98916 34.22 5.70732V2.53658ZM11.02 7.39837V9.30081L7.92667 12.4715V7.39837H11.02ZM25.52 9.08943C25.52 9.23035 25.52 9.37127 25.52 9.5122L25.3267 10.9919L24.94 11.2033L20.1067 6.13008C19.9778 5.98916 19.7844 5.9187 19.5267 5.9187C19.2689 5.9187 19.0756 5.98916 18.9467 6.13008L3.09333 22.4065C2.96444 22.6883 2.77111 22.794 2.51333 22.7236C2.25556 22.6531 2.03 22.5474 1.83667 22.4065C1.64333 22.2656 1.57889 22.0542 1.64333 21.7724C1.70778 21.4905 1.80444 21.2087 1.93333 20.9268L18.9467 3.59349C19.0756 3.45257 19.2689 3.38211 19.5267 3.38211C19.7844 3.38211 19.9778 3.45257 20.1067 3.59349L25.52 9.08943ZM26.2933 17.5447C26.1644 17.5447 26.1 17.4038 26.1 17.1219V15.4309H26.68V17.5447H26.2933ZM25.9067 13.3171V12.8943H26.1C26.3578 12.8943 26.5833 12.7886 26.7767 12.5772C26.97 12.3659 27.0667 12.1192 27.0667 11.8374V10.7805L27.26 8.87805C27.5178 7.60976 28.13 6.44715 29.0967 5.39024C30.0633 4.33333 31.2556 3.66396 32.6733 3.38211V5.70732C32.6733 6.41192 32.8989 7.01084 33.35 7.50406C33.8011 7.99729 34.3489 8.2439 34.9933 8.2439H35.7667C36.4111 8.2439 36.9589 7.99729 37.41 7.50406C37.8611 7.01084 38.0867 6.41192 38.0867 5.70732V3.38211C39.5044 3.66396 40.7289 4.36856 41.76 5.49593C43.0489 6.90515 43.6933 8.66666 43.6933 10.7805V11.8374C43.6933 12.1192 43.79 12.3659 43.9833 12.5772C44.1767 12.7886 44.4022 12.8943 44.66 12.8943H44.8533V13.3171H25.9067ZM28.42 19.4472V15.4309H42.34V19.6585C42.2111 20.645 41.8567 21.5962 41.2767 22.5122C40.6967 23.4282 40.02 24.2385 39.2467 24.9431L38.86 25.3659C38.3444 25.6477 37.8289 25.8591 37.3133 26C36.4111 26.1409 35.7344 26.2114 35.2833 26.2114C34.8322 26.2114 34.22 26.1409 33.4467 26C32.9311 25.8591 32.4156 25.6477 31.9 25.3659L31.7067 25.1545C30.8044 24.4499 30.0633 23.5691 29.4833 22.5122C28.9033 21.4553 28.5489 20.4336 28.42 19.4472ZM31.5133 29.8049C32.0289 29.664 32.2867 29.2412 32.2867 28.5366V27.4797L32.8667 27.6911C33.8978 27.9729 34.7033 28.1138 35.2833 28.1138C35.8633 28.1138 36.6689 27.9729 37.7 27.6911L38.4733 27.4797V28.5366C38.4733 29.2412 38.7311 29.664 39.2467 29.8049L40.6 30.6504L36.7333 32.3415L32.8667 32.1301L30.16 30.6504L31.5133 29.8049ZM15.08 50.0976C14.8222 50.0976 14.6289 50.0271 14.5 49.8862C14.3711 49.7453 14.3711 49.6043 14.5 49.4634L14.8867 39.3171C14.8867 37.9079 15.4022 36.6396 16.4333 35.5122C16.9489 34.9485 17.5289 34.4553 18.1733 34.0325L19.9133 33.3984V50.0976H15.08ZM20.3 31.2846L17.98 32.3415L16.6267 32.9756V23.6748H22.4267V30.439L20.3 31.2846ZM21.46 50.0976V32.7642L26.8733 30.6504L27.6467 34.0325C27.9044 35.4417 28.5489 36.4986 29.58 37.2033L34.6067 40.5854V50.0976H21.46ZM30.3533 35.7236C29.7089 35.3008 29.3222 34.6667 29.1933 33.8211L28.8067 31.7073C30.74 33.3984 32.9311 34.2439 35.38 34.2439C36.0244 34.2439 36.6689 34.1734 37.3133 34.0325C39.1178 33.7507 40.6644 32.9756 41.9533 31.7073L41.5667 33.8211C41.4378 34.6667 41.0511 35.3008 40.4067 35.7236L35.38 39.1057L30.3533 35.7236ZM49.3 50.0976H36.1533V40.5854L41.18 37.2033C42.2111 36.4986 42.8556 35.4417 43.1133 34.0325L43.8867 30.6504L49.3 32.7642V50.0976Z" fill="#FF5E14"></path></svg>