<svg xmlns="http://www.w3.org/2000/svg" width="58" height="52" viewBox="0 0 58 52" fill="none"><path d="M58 32.9577C58 31.8592 57.6133 30.9437 56.84 30.2113C56.3244 29.8451 55.4222 29.3568 54.1333 28.7465L51.62 27.4648L51.4267 25.8169C52.3289 25.2066 53.0378 24.4742 53.5533 23.6197C54.0689 22.7653 54.3267 21.8498 54.3267 20.8732V19.2254H55.68V17.7606H54.3267V17.5775C54.3267 16.1127 53.8111 14.831 52.78 13.7324C51.7489 12.6338 50.46 11.9624 48.9133 11.7183V10.4366H47.1733V11.7183C45.6267 11.9624 44.37 12.6338 43.4033 13.7324C42.4367 14.831 41.9533 16.1127 41.9533 17.5775V17.7606H40.6V19.2254H41.9533V20.8732C41.9533 21.8498 42.1789 22.7653 42.63 23.6197C43.0811 24.4742 43.7578 25.2066 44.66 25.8169L44.4667 27.4648L40.4067 29.4789L33.8333 26.1831L33.64 23.4366C34.8 22.7042 35.7344 21.7277 36.4433 20.507C37.1522 19.2864 37.5067 17.9437 37.5067 16.4789V14.6479H39.6333V9.88733H37.8933C37.8933 7.93427 37.2811 6.19484 36.0567 4.66902C34.8322 3.1432 33.3178 2.13615 31.5133 1.64789C31.3844 1.15963 31.0622 0.762913 30.5467 0.457748C30.0311 0.152584 29.5156 3.8147e-06 29 3.8147e-06C28.4844 3.8147e-06 27.9689 0.152584 27.4533 0.457748C26.9378 0.762913 26.6156 1.15963 26.4867 1.64789C25.0689 2.13615 23.78 2.86855 22.62 3.84507L23.9733 4.94366C24.6178 4.33334 25.4556 3.84507 26.4867 3.47887V9.88733H21.8467C21.8467 8.5446 22.2333 7.26291 23.0067 6.04226L21.46 5.30986C20.5578 6.65258 20.1067 8.17841 20.1067 9.88733H18.3667V14.6479H20.4933V16.4789C20.4933 17.9437 20.8478 19.2864 21.5567 20.507C22.2656 21.7277 23.2 22.7042 24.36 23.4366L24.1667 26.1831L17.5933 29.4789L13.5333 27.4648L13.34 25.8169C14.2422 25.2066 14.9189 24.4742 15.37 23.6197C15.8211 22.7653 16.0467 21.8498 16.0467 20.8732V19.2254H17.4V17.7606H16.0467V17.5775C16.0467 16.1127 15.5633 14.831 14.5967 13.7324C13.63 12.6338 12.3733 11.9624 10.8267 11.7183V10.4366H9.08667V11.7183C7.54 11.9624 6.25111 12.6338 5.22 13.7324C4.18889 14.831 3.67333 16.1127 3.67333 17.5775V17.7606H2.32V19.2254H3.67333V20.8732C3.67333 21.8498 3.93111 22.7653 4.44667 23.6197C4.96222 24.4742 5.67111 25.2066 6.57333 25.8169L6.38 27.4648L3.86667 28.7465C2.57778 29.3568 1.67556 29.8451 1.16 30.2113C0.386667 30.9437 0 31.8592 0 32.9577V42.2958H13.7267L29 52L36.3467 47.4225L35.38 46.1408L29.7733 49.6197V30.9437L33.2533 33.1408L36.7333 29.4789L39.6333 30.9437C40.9222 31.554 41.8567 32.0728 42.4367 32.5C43.0167 32.9272 43.3067 33.507 43.3067 34.2394V41.0141L36.7333 45.2254L37.7 46.507L44.2733 42.2958H58V32.9577ZM36.1533 9.88733H31.5133V3.47887C32.9311 3.96714 34.0589 4.79108 34.8967 5.95071C35.7344 7.11033 36.1533 8.42254 36.1533 9.88733ZM28.2267 2.38028C28.2267 2.13615 28.2911 1.92254 28.42 1.73944C28.5489 1.55634 28.7422 1.46479 29 1.46479C29.2578 1.46479 29.4511 1.55634 29.58 1.73944C29.7089 1.92254 29.7733 2.13615 29.7733 2.38028V9.88733H28.2267V2.38028ZM20.1067 11.3521H37.8933V13H20.1067V11.3521ZM22.04 16.4789V14.6479H35.96V16.4789C35.96 18.3099 35.2833 19.8662 33.93 21.1479C32.5767 22.4296 30.9333 23.0704 29 23.0704C27.0667 23.0704 25.4233 22.4296 24.07 21.1479C22.7167 19.8662 22.04 18.3099 22.04 16.4789ZM29 24.7183C30.0311 24.7183 30.9978 24.5352 31.9 24.169L32.0933 26.3662L29 28.3803L25.9067 26.3662L26.1 24.169C27.0022 24.5352 27.9689 24.7183 29 24.7183ZM27.4533 29.2958L25.1333 31.1268L22.8133 28.7465L24.94 27.6479L27.4533 29.2958ZM5.41333 17.5775C5.41333 16.6009 5.76778 15.716 6.47667 14.9225C7.18556 14.1291 8.05556 13.6103 9.08667 13.3662V15.3803H10.8267V13.3662C11.8578 13.6103 12.7278 14.1291 13.4367 14.9225C14.1456 15.716 14.5 16.6009 14.5 17.5775V17.7606H5.41333V17.5775ZM5.41333 20.8732V19.2254H14.5V20.8732C14.5 22.0939 14.0489 23.1009 13.1467 23.8944C12.2444 24.6878 11.1811 25.0845 9.95667 25.0845C8.73222 25.0845 7.66889 24.6878 6.76667 23.8944C5.86444 23.1009 5.41333 22.0939 5.41333 20.8732ZM9.86 26.7324C10.5044 26.7324 11.1489 26.6714 11.7933 26.5493V27.6479L9.86 29.662L7.92667 27.6479L8.12 26.5493C8.76444 26.6714 9.34444 26.7324 9.86 26.7324ZM4.64 30.0282C4.89778 29.9061 5.15556 29.784 5.41333 29.662L6.96 28.9296L9.08667 31.1268V33.507H1.74V32.9577C1.74 32.3474 1.96556 31.8592 2.41667 31.493C2.86778 31.1268 3.60889 30.6385 4.64 30.0282ZM13.1467 34.9718V36.6197H10.8267V34.9718H13.1467ZM9.08667 36.6197H1.74V34.9718H9.08667V36.6197ZM1.74 40.6479V38.2676H9.08667V40.6479H1.74ZM10.8267 38.2676H13.1467V40.6479H10.8267V38.2676ZM13.1467 33.507H10.8267V31.1268L12.9533 28.9296L15.66 30.3944C14.2422 31.2488 13.4044 32.2864 13.1467 33.507ZM14.6933 34.2394C14.6933 33.507 14.9833 32.9272 15.5633 32.5C16.1433 32.0728 17.0778 31.554 18.3667 30.9437L21.2667 29.4789L24.7467 33.1408L28.2267 30.9437V49.6197L14.6933 41.0141V34.2394ZM32.8667 31.1268L30.5467 29.2958L33.06 27.6479L35.1867 28.7465L32.8667 31.1268ZM43.5 17.5775C43.5 16.6009 43.8544 15.716 44.5633 14.9225C45.2722 14.1291 46.1422 13.6103 47.1733 13.3662V15.3803H48.9133V13.3662C49.9444 13.6103 50.8144 14.1291 51.5233 14.9225C52.2322 15.716 52.5867 16.6009 52.5867 17.5775V17.7606H43.5V17.5775ZM43.5 20.8732V19.2254H52.5867V20.8732C52.5867 22.0939 52.1356 23.1009 51.2333 23.8944C50.3311 24.6878 49.2678 25.0845 48.0433 25.0845C46.8189 25.0845 45.7556 24.6878 44.8533 23.8944C43.9511 23.1009 43.5 22.0939 43.5 20.8732ZM48.14 26.7324C48.6556 26.7324 49.2356 26.6714 49.88 26.5493L50.0733 28.0141C50.0733 28.2582 49.88 28.5329 49.4933 28.838C49.1067 29.1432 48.6556 29.2958 48.14 29.2958C47.6244 29.2958 47.1733 29.1432 46.7867 28.838C46.4 28.5329 46.2067 28.2582 46.2067 28.0141V26.5493C46.8511 26.6714 47.4956 26.7324 48.14 26.7324ZM56.26 40.6479H44.8533V34.2394C44.8533 32.6526 44.0156 31.3709 42.34 30.3944L44.66 29.1127C45.0467 29.6009 45.53 29.9977 46.11 30.3028C46.69 30.608 47.3344 30.7606 48.0433 30.7606C48.7522 30.7606 49.4289 30.608 50.0733 30.3028C50.7178 29.9977 51.1689 29.6009 51.4267 29.1127L53.36 30.0282C54.3911 30.6385 55.1322 31.1268 55.5833 31.493C56.0344 31.8592 56.26 32.3474 56.26 32.9577V40.6479ZM39.8267 37.5352H41.5667V39H39.8267V37.5352ZM39.8267 34.2394H41.5667V35.8873H39.8267V34.2394Z" fill="#FF5E14"></path></svg>